<svg xmlns="http://www.w3.org/2000/svg" viewBox="0 0 64 64" fill="none">
  <rect width="64" height="64" rx="18" fill="#F3F4F6"/>
  <path d="M21.5 23.5C21.5 19.9101 24.4101 17 28 17H42.5V24H29.5C28.1193 24 27 25.1193 27 26.5C27 27.8807 28.1193 29 29.5 29H35.5C40.7467 29 45 33.2533 45 38.5C45 43.7467 40.7467 48 35.5 48H20V41H34C35.3807 41 36.5 39.8807 36.5 38.5C36.5 37.1193 35.3807 36 34 36H28C24.4101 36 21.5 33.0899 21.5 29.5V23.5Z" fill="#1F2937"/>
  <path d="M37 17H42.5V24H37V17Z" fill="#0F766E"/>
</svg>
